<svg width="28" height="20" viewBox="0 0 28 20" xmlns="http://www.w3.org/2000/svg">
<path d="M14 6.25C14.9946 6.25 15.9484 6.64509 16.6517 7.34835C17.3549 8.05161 17.75 9.00544 17.75 10C17.75 10.9946 17.3549 11.9484 16.6517 12.6517C15.9484 13.3549 14.9946 13.75 14 13.75C13.0054 13.75 12.0516 13.3549 11.3483 12.6517C10.6451 11.9484 10.25 10.9946 10.25 10C10.25 9.00544 10.6451 8.05161 11.3483 7.34835C12.0516 6.64509 13.0054 6.25 14 6.25ZM14 0.625C20.25 0.625 25.5875 4.5125 27.75 10C25.5875 15.4875 20.25 19.375 14 19.375C7.75 19.375 2.4125 15.4875 0.25 10C2.4125 4.5125 7.75 0.625 14 0.625ZM2.975 10C3.98532 12.0629 5.55413 13.8009 7.5031 15.0166C9.45206 16.2322 11.703 16.8766 14 16.8766C16.297 16.8766 18.5479 16.2322 20.4969 15.0166C22.4459 13.8009 24.0147 12.0629 25.025 10C24.0147 7.93712 22.4459 6.19907 20.4969 4.98343C18.5479 3.7678 16.297 3.12335 14 3.12335C11.703 3.12335 9.45206 3.7678 7.5031 4.98343C5.55413 6.19907 3.98532 7.93712 2.975 10Z" />
</svg>
